<svg xmlns="http://www.w3.org/2000/svg" xmlns:xlink="http://www.w3.org/1999/xlink" xmlns:lucid="lucid" width="1200" height="780"><g transform="translate(-240 -260)" lucid:page-tab-id="0_0"><path d="M260 280h1160v740H260z" stroke="#000" stroke-width="2" fill="none"/><use xlink:href="#a" transform="matrix(1,0,0,1,265,285) translate(453.641975308642 17.77777777777778)"/><use xlink:href="#b" transform="matrix(1,0,0,1,265,285) translate(557.0987654320987 17.77777777777778)"/><use xlink:href="#c" transform="matrix(1,0,0,1,265,285) translate(626.1728395061727 17.77777777777778)"/><path d="M320 320h160v120H320z" stroke="#000" stroke-width="2" fill="none"/><use xlink:href="#d" transform="matrix(1,0,0,1,325,325) translate(19.124999999999993 58.6)"/><path d="M1200 860h160v120h-160z" stroke="#000" stroke-width="2" fill="none"/><use xlink:href="#e" transform="matrix(1,0,0,1,1205,865) translate(18.074999999999996 58.6)"/><path d="M792 320h128l-32 120H760z" stroke="#000" stroke-width="2" fill="none"/><use xlink:href="#f" transform="matrix(1,0,0,1,765,325) translate(35.599999999999994 37)"/><use xlink:href="#g" transform="matrix(1,0,0,1,765,325) translate(51.55 58.6)"/><use xlink:href="#h" transform="matrix(1,0,0,1,765,325) translate(51.525 80.20000000000002)"/><path d="M776 380H480" stroke="#000" stroke-width="2" fill="none"/><path d="M776 380v-1h.27zM494.27 384.64L480 380l14.27-4.64z"/><path d="M495.27 386L480 381.06v-2.1l15.27-4.96zm-12.03-6l10.03 3.26v-6.52z"/><path d="M300 500h1080v300H300z" stroke="#000" stroke-width="2" fill="none"/><use xlink:href="#i" transform="matrix(1,0,0,1,305,505) translate(415.4938271604938 17.77777777777778)"/><use xlink:href="#j" transform="matrix(1,0,0,1,305,505) translate(504.1358024691358 17.77777777777778)"/><use xlink:href="#k" transform="matrix(1,0,0,1,305,505) translate(568.2098765432099 17.77777777777778)"/><path d="M720 780h460V540H720z" stroke="#000" stroke-width="2" fill="none"/><use xlink:href="#l" transform="matrix(1,0,0,1,725,545) translate(133.20987654320987 17.77777777777778)"/><use xlink:href="#m" transform="matrix(1,0,0,1,725,545) translate(234.19753086419752 17.77777777777778)"/><path d="M540 600h160v120H540z" stroke="#000" stroke-width="2" fill="none"/><use xlink:href="#n" transform="matrix(1,0,0,1,545,605) translate(52.05 47.8)"/><use xlink:href="#o" transform="matrix(1,0,0,1,545,605) translate(42.55 69.4)"/><path d="M760 600h160v120H760z" stroke="#000" stroke-width="2" fill="none"/><use xlink:href="#p" transform="matrix(1,0,0,1,765.0000000000001,605) translate(15.125 58.6)"/><use xlink:href="#q" transform="matrix(1,0,0,1,765.0000000000001,605) translate(96.925 58.6)"/><path d="M980 600h160v120H980z" stroke="#000" stroke-width="2" fill="none"/><use xlink:href="#r" transform="matrix(1,0,0,1,985,605) translate(16.075000000000003 58.6)"/><use xlink:href="#s" transform="matrix(1,0,0,1,985,605) translate(52.075 58.6)"/><path d="M464 660h75" stroke="#000" stroke-width="2" fill="none"/><path d="M464 661h-.27l.27-1zM539 660l-14.27 4.64v-9.28z"/><path d="M540 659.27v1.46L523.73 666v-12zm-14.27 4l10.03-3.27-10.03-3.26z"/><path d="M700 660h59" stroke="#000" stroke-width="2" fill="none"/><path/><path d="M759 660l-14.27 4.64v-9.28z"/><path d="M760 659.27v1.46L743.73 666v-12zm-14.27 4l10.03-3.27-10.03-3.26z"/><path d="M920 660h59" stroke="#000" stroke-width="2" fill="none"/><path/><path d="M979 660l-14.27 4.64v-9.28z"/><path d="M980 659.27v1.46L963.73 666v-12zm-14.27 4l10.03-3.27-10.03-3.26z"/><path d="M1232 600h128l-32 120h-128z" stroke="#000" stroke-width="2" fill="none"/><use xlink:href="#t" transform="matrix(1,0,0,1,1205,605) translate(37.575 47.8)"/><use xlink:href="#o" transform="matrix(1,0,0,1,1205,605) translate(42.55 69.4)"/><path d="M1140 660h74.97" stroke="#000" stroke-width="2" fill="none"/><path/><path d="M1214.97 660l-14.27 4.64v-9.28z"/><path d="M1216.18 659.34l-.4 1.44-16.08 5.23v-12zm-14.48 3.92l10.03-3.26-10.03-3.26z"/><path d="M352 600h128l-32 120H320z" stroke="#000" stroke-width="2" fill="none"/><use xlink:href="#u" transform="matrix(1,0,0,1,325,605) translate(39.099999999999994 58.6)"/><use xlink:href="#v" transform="matrix(1,0,0,1,325,605) translate(82.05 58.6)"/><path d="M464 660h75" stroke="#000" stroke-width="2" fill="none"/><path d="M464 661h-.27l.27-1zM539 660l-14.27 4.64v-9.28z"/><path d="M540 659.27v1.46L523.73 666v-12zm-14.27 4l10.03-3.27-10.03-3.26z"/><path d="M400 440v160" stroke="#000" stroke-width="2" fill="none"/><path/><path d="M400 600l-4.64-14.27h9.28z"/><path d="M401.05 600h-2.1L394 584.73h12zm-4.3-13.27l3.25 10.03 3.26-10.03z"/><path d="M792 860h128l-32 120H760z" stroke="#000" stroke-width="2" fill="none"/><use xlink:href="#w" transform="matrix(1,0,0,1,765,865) translate(35.574999999999996 26.19999999999999)"/><use xlink:href="#x" transform="matrix(1,0,0,1,765,865) translate(35.599999999999994 47.79999999999999)"/><use xlink:href="#y" transform="matrix(1,0,0,1,765,865) translate(51.55 69.39999999999999)"/><use xlink:href="#h" transform="matrix(1,0,0,1,765,865) translate(51.525 91)"/><path d="M1280 720v140" stroke="#000" stroke-width="2" fill="none"/><path/><path d="M1280 860l-4.64-14.27h9.28z"/><path d="M1281.05 860h-2.1l-4.96-15.27h12zm-4.3-13.27l3.25 10.03 3.26-10.03z"/><path d="M980 860h160v120H980z" stroke="#000" stroke-width="2" fill="none"/><g><use xlink:href="#z" transform="matrix(1,0,0,1,985,865) translate(25.549999999999997 37)"/><use xlink:href="#A" transform="matrix(1,0,0,1,985,865) translate(23.099999999999994 58.6)"/><use xlink:href="#B" transform="matrix(1,0,0,1,985,865) translate(95 58.6)"/><use xlink:href="#C" transform="matrix(1,0,0,1,985,865) translate(29.025 80.20000000000002)"/><use xlink:href="#D" transform="matrix(1,0,0,1,985,865) translate(74.025 80.20000000000002)"/></g><path d="M1200 920h-59" stroke="#000" stroke-width="2" fill="none"/><path/><path d="M1155.27 924.64L1141 920l14.27-4.64z"/><path d="M1156.27 926l-16.27-5.27v-1.46l16.27-5.28zm-12.03-6l10.03 3.26v-6.52z"/><path d="M980 920h-76" stroke="#000" stroke-width="2" fill="none"/><path/><path d="M918.27 924.64L904 920l14.27-4.64z"/><path d="M919.27 926l-15.53-5.03.57-2.12 14.97-4.86zm-12.03-6l10.03 3.26v-6.52z"/><defs><path d="M197 0v-115H63V0H30v-248h33v105h134v-105h34V0h-34" id="E"/><path d="M84 4C-5 8 30-112 23-190h32v120c0 31 7 50 39 49 72-2 45-101 50-169h31l1 190h-30c-1-10 1-25-2-33-11 22-28 36-60 37" id="F"/><path d="M210-169c-67 3-38 105-44 169h-31v-121c0-29-5-50-35-48C34-165 62-65 56 0H25l-1-190h30c1 10-1 24 2 32 10-44 99-50 107 0 11-21 27-35 58-36 85-2 47 119 55 194h-31v-121c0-29-5-49-35-48" id="G"/><path d="M85-194c31 0 48 13 60 33l-1-100h32l1 261h-30c-2-10 0-23-3-31C134-8 116 4 85 4 32 4 16-35 15-94c0-66 23-100 70-100zm9 24c-40 0-46 34-46 75 0 40 6 74 45 74 42 0 51-32 51-76 0-42-9-74-50-73" id="H"/><path d="M114-163C36-179 61-72 57 0H25l-1-190h30c1 12-1 29 2 39 6-27 23-49 58-41v29" id="I"/><g id="a"><use transform="matrix(0.06172839506172839,0,0,0.06172839506172839,0,0)" xlink:href="#E"/><use transform="matrix(0.06172839506172839,0,0,0.06172839506172839,15.987654320987653,0)" xlink:href="#F"/><use transform="matrix(0.06172839506172839,0,0,0.06172839506172839,28.333333333333332,0)" xlink:href="#G"/><use transform="matrix(0.06172839506172839,0,0,0.06172839506172839,46.79012345679012,0)" xlink:href="#H"/><use transform="matrix(0.06172839506172839,0,0,0.06172839506172839,59.1358024691358,0)" xlink:href="#I"/><use transform="matrix(0.06172839506172839,0,0,0.06172839506172839,66.48148148148148,0)" xlink:href="#F"/><use transform="matrix(0.06172839506172839,0,0,0.06172839506172839,78.82716049382717,0)" xlink:href="#G"/></g><path d="M30 0v-248h187v28H63v79h144v27H63v87h162V0H30" id="J"/><path d="M141 0L90-78 38 0H4l68-98-65-92h35l48 74 47-74h35l-64 92 68 98h-35" id="K"/><path d="M59-47c-2 24 18 29 38 22v24C64 9 27 4 27-40v-127H5v-23h24l9-43h21v43h35v23H59v120" id="L"/><path d="M141-36C126-15 110 5 73 4 37 3 15-17 15-53c-1-64 63-63 125-63 3-35-9-54-41-54-24 1-41 7-42 31l-33-3c5-37 33-52 76-52 45 0 72 20 72 64v82c-1 20 7 32 28 27v20c-31 9-61-2-59-35zM48-53c0 20 12 33 32 33 41-3 63-29 60-74-43 2-92-5-92 41" id="M"/><path d="M135-143c-3-34-86-38-87 0 15 53 115 12 119 90S17 21 10-45l28-5c4 36 97 45 98 0-10-56-113-15-118-90-4-57 82-63 122-42 12 7 21 19 24 35" id="N"/><g id="b"><use transform="matrix(0.06172839506172839,0,0,0.06172839506172839,0,0)" xlink:href="#J"/><use transform="matrix(0.06172839506172839,0,0,0.06172839506172839,14.814814814814813,0)" xlink:href="#K"/><use transform="matrix(0.06172839506172839,0,0,0.06172839506172839,25.925925925925924,0)" xlink:href="#L"/><use transform="matrix(0.06172839506172839,0,0,0.06172839506172839,32.098765432098766,0)" xlink:href="#I"/><use transform="matrix(0.06172839506172839,0,0,0.06172839506172839,39.44444444444444,0)" xlink:href="#M"/><use transform="matrix(0.06172839506172839,0,0,0.06172839506172839,51.79012345679012,0)" xlink:href="#N"/></g><path d="M87 75C49 33 22-17 22-94c0-76 28-126 65-167h31c-38 41-64 92-64 168S80 34 118 75H87" id="O"/><path d="M100-194c62-1 85 37 85 99 1 63-27 99-86 99S16-35 15-95c0-66 28-99 85-99zM99-20c44 1 53-31 53-75 0-43-8-75-51-75s-53 32-53 75 10 74 51 75" id="P"/><path d="M33-261c38 41 65 92 65 168S71 34 33 75H2C39 34 66-17 66-93S39-220 2-261h31" id="Q"/><g id="c"><use transform="matrix(0.06172839506172839,0,0,0.06172839506172839,0,0)" xlink:href="#O"/><use transform="matrix(0.06172839506172839,0,0,0.06172839506172839,7.345679012345679,0)" xlink:href="#L"/><use transform="matrix(0.06172839506172839,0,0,0.06172839506172839,13.518518518518519,0)" xlink:href="#N"/><use transform="matrix(0.06172839506172839,0,0,0.06172839506172839,24.62962962962963,0)" xlink:href="#I"/><use transform="matrix(0.06172839506172839,0,0,0.06172839506172839,31.975308641975307,0)" xlink:href="#P"/><use transform="matrix(0.06172839506172839,0,0,0.06172839506172839,44.32098765432099,0)" xlink:href="#P"/><use transform="matrix(0.06172839506172839,0,0,0.06172839506172839,56.666666666666664,0)" xlink:href="#L"/><use transform="matrix(0.06172839506172839,0,0,0.06172839506172839,62.839506172839506,0)" xlink:href="#Q"/></g><path d="M143 0L79-87 56-68V0H24v-261h32v163l83-92h37l-77 82L181 0h-38" id="R"/><path d="M100-194c63 0 86 42 84 106H49c0 40 14 67 53 68 26 1 43-12 49-29l28 8c-11 28-37 45-77 45C44 4 14-33 15-96c1-61 26-98 85-98zm52 81c6-60-76-77-97-28-3 7-6 17-6 28h103" id="S"/><path d="M117-194c89-4 53 116 60 194h-32v-121c0-31-8-49-39-48C34-167 62-67 57 0H25l-1-190h30c1 10-1 24 2 32 11-22 29-35 61-36" id="T"/><path d="M101-251c82-7 93 87 43 132L82-64C71-53 59-42 53-27h129V0H18c2-99 128-94 128-182 0-28-16-43-45-43s-46 15-49 41l-32-3c6-41 34-60 81-64" id="U"/><path d="M24 0v-261h32V0H24" id="V"/><path d="M24-231v-30h32v30H24zM24 0v-190h32V0H24" id="W"/><g id="d"><use transform="matrix(0.05,0,0,0.05,0,0)" xlink:href="#R"/><use transform="matrix(0.05,0,0,0.05,9,0)" xlink:href="#S"/><use transform="matrix(0.05,0,0,0.05,19,0)" xlink:href="#I"/><use transform="matrix(0.05,0,0,0.05,24.95,0)" xlink:href="#T"/><use transform="matrix(0.05,0,0,0.05,34.95,0)" xlink:href="#U"/><use transform="matrix(0.05,0,0,0.05,44.95,0)" xlink:href="#G"/><use transform="matrix(0.05,0,0,0.05,59.900000000000006,0)" xlink:href="#S"/><use transform="matrix(0.05,0,0,0.05,69.9,0)" xlink:href="#V"/><use transform="matrix(0.05,0,0,0.05,73.85000000000001,0)" xlink:href="#W"/><use transform="matrix(0.05,0,0,0.05,77.80000000000001,0)" xlink:href="#N"/><use transform="matrix(0.05,0,0,0.05,86.80000000000001,0)" xlink:href="#G"/><use transform="matrix(0.05,0,0,0.05,101.75000000000001,0)" xlink:href="#M"/></g><path d="M179-190L93 31C79 59 56 82 12 73V49c39 6 53-20 64-50L1-190h34L92-34l54-156h33" id="X"/><path d="M106-169C34-169 62-67 57 0H25v-261h32l-1 103c12-21 28-36 61-36 89 0 53 116 60 194h-32v-121c2-32-8-49-39-48" id="Y"/><g id="e"><use transform="matrix(0.05,0,0,0.05,0,0)" xlink:href="#R"/><use transform="matrix(0.05,0,0,0.05,9,0)" xlink:href="#S"/><use transform="matrix(0.05,0,0,0.05,19,0)" xlink:href="#X"/><use transform="matrix(0.05,0,0,0.05,28,0)" xlink:href="#U"/><use transform="matrix(0.05,0,0,0.05,38,0)" xlink:href="#Y"/><use transform="matrix(0.05,0,0,0.05,48,0)" xlink:href="#F"/><use transform="matrix(0.05,0,0,0.05,58,0)" xlink:href="#G"/><use transform="matrix(0.05,0,0,0.05,72.95,0)" xlink:href="#H"/><use transform="matrix(0.05,0,0,0.05,82.95,0)" xlink:href="#I"/><use transform="matrix(0.05,0,0,0.05,88.9,0)" xlink:href="#F"/><use transform="matrix(0.05,0,0,0.05,98.9,0)" xlink:href="#G"/></g><g id="f"><use transform="matrix(0.05,0,0,0.05,0,0)" xlink:href="#E"/><use transform="matrix(0.05,0,0,0.05,12.950000000000001,0)" xlink:href="#F"/><use transform="matrix(0.05,0,0,0.05,22.950000000000003,0)" xlink:href="#G"/><use transform="matrix(0.05,0,0,0.05,37.900000000000006,0)" xlink:href="#H"/><use transform="matrix(0.05,0,0,0.05,47.900000000000006,0)" xlink:href="#I"/><use transform="matrix(0.05,0,0,0.05,53.85,0)" xlink:href="#F"/><use transform="matrix(0.05,0,0,0.05,63.85,0)" xlink:href="#G"/></g><path d="M240 0l2-218c-23 76-54 145-80 218h-23L58-218 59 0H30v-248h44l77 211c21-75 51-140 76-211h43V0h-30" id="Z"/><path d="M96-169c-40 0-48 33-48 73s9 75 48 75c24 0 41-14 43-38l32 2c-6 37-31 61-74 61-59 0-76-41-82-99-10-93 101-131 147-64 4 7 5 14 7 22l-32 3c-4-21-16-35-41-35" id="aa"/><g id="g"><use transform="matrix(0.05,0,0,0.05,0,0)" xlink:href="#Z"/><use transform="matrix(0.05,0,0,0.05,14.950000000000001,0)" xlink:href="#F"/><use transform="matrix(0.05,0,0,0.05,24.950000000000003,0)" xlink:href="#N"/><use transform="matrix(0.05,0,0,0.05,33.95,0)" xlink:href="#W"/><use transform="matrix(0.05,0,0,0.05,37.900000000000006,0)" xlink:href="#aa"/></g><path d="M185-189c-5-48-123-54-124 2 14 75 158 14 163 119 3 78-121 87-175 55-17-10-28-26-33-46l33-7c5 56 141 63 141-1 0-78-155-14-162-118-5-82 145-84 179-34 5 7 8 16 11 25" id="ab"/><g id="h"><use transform="matrix(0.05,0,0,0.05,0,0)" xlink:href="#ab"/><use transform="matrix(0.05,0,0,0.05,12,0)" xlink:href="#aa"/><use transform="matrix(0.05,0,0,0.05,21,0)" xlink:href="#P"/><use transform="matrix(0.05,0,0,0.05,31,0)" xlink:href="#I"/><use transform="matrix(0.05,0,0,0.05,36.95,0)" xlink:href="#S"/></g><g id="i"><use transform="matrix(0.06172839506172839,0,0,0.06172839506172839,0,0)" xlink:href="#Z"/><use transform="matrix(0.06172839506172839,0,0,0.06172839506172839,18.456790123456788,0)" xlink:href="#S"/><use transform="matrix(0.06172839506172839,0,0,0.06172839506172839,30.80246913580247,0)" xlink:href="#V"/><use transform="matrix(0.06172839506172839,0,0,0.06172839506172839,35.67901234567901,0)" xlink:href="#W"/><use transform="matrix(0.06172839506172839,0,0,0.06172839506172839,40.55555555555556,0)" xlink:href="#N"/><use transform="matrix(0.06172839506172839,0,0,0.06172839506172839,51.66666666666667,0)" xlink:href="#G"/><use transform="matrix(0.06172839506172839,0,0,0.06172839506172839,70.12345679012346,0)" xlink:href="#M"/></g><g id="j"><use transform="matrix(0.06172839506172839,0,0,0.06172839506172839,0,0)" xlink:href="#Z"/><use transform="matrix(0.06172839506172839,0,0,0.06172839506172839,18.456790123456788,0)" xlink:href="#F"/><use transform="matrix(0.06172839506172839,0,0,0.06172839506172839,30.80246913580247,0)" xlink:href="#N"/><use transform="matrix(0.06172839506172839,0,0,0.06172839506172839,41.91358024691358,0)" xlink:href="#W"/><use transform="matrix(0.06172839506172839,0,0,0.06172839506172839,46.79012345679013,0)" xlink:href="#aa"/></g><path d="M205 0l-28-72H64L36 0H1l101-248h38L239 0h-34zm-38-99l-47-123c-12 45-31 82-46 123h93" id="ac"/><path d="M9 0v-24l116-142H16v-24h144v24L44-24h123V0H9" id="ad"/><g id="k"><use transform="matrix(0.06172839506172839,0,0,0.06172839506172839,0,0)" xlink:href="#ac"/><use transform="matrix(0.06172839506172839,0,0,0.06172839506172839,14.814814814814813,0)" xlink:href="#T"/><use transform="matrix(0.06172839506172839,0,0,0.06172839506172839,27.160493827160494,0)" xlink:href="#M"/><use transform="matrix(0.06172839506172839,0,0,0.06172839506172839,39.50617283950617,0)" xlink:href="#V"/><use transform="matrix(0.06172839506172839,0,0,0.06172839506172839,44.382716049382715,0)" xlink:href="#X"/><use transform="matrix(0.06172839506172839,0,0,0.06172839506172839,55.49382716049382,0)" xlink:href="#ad"/><use transform="matrix(0.06172839506172839,0,0,0.06172839506172839,66.60493827160494,0)" xlink:href="#S"/><use transform="matrix(0.06172839506172839,0,0,0.06172839506172839,78.95061728395062,0)" xlink:href="#I"/></g><g id="l"><use transform="matrix(0.06172839506172839,0,0,0.06172839506172839,0,0)" xlink:href="#E"/><use transform="matrix(0.06172839506172839,0,0,0.06172839506172839,15.987654320987653,0)" xlink:href="#M"/><use transform="matrix(0.06172839506172839,0,0,0.06172839506172839,28.333333333333332,0)" xlink:href="#I"/><use transform="matrix(0.06172839506172839,0,0,0.06172839506172839,35.67901234567901,0)" xlink:href="#G"/><use transform="matrix(0.06172839506172839,0,0,0.06172839506172839,54.1358024691358,0)" xlink:href="#P"/><use transform="matrix(0.06172839506172839,0,0,0.06172839506172839,66.48148148148148,0)" xlink:href="#T"/><use transform="matrix(0.06172839506172839,0,0,0.06172839506172839,78.82716049382717,0)" xlink:href="#W"/><use transform="matrix(0.06172839506172839,0,0,0.06172839506172839,83.70370370370371,0)" xlink:href="#aa"/></g><g id="m"><use transform="matrix(0.06172839506172839,0,0,0.06172839506172839,0,0)" xlink:href="#ac"/><use transform="matrix(0.06172839506172839,0,0,0.06172839506172839,14.814814814814813,0)" xlink:href="#T"/><use transform="matrix(0.06172839506172839,0,0,0.06172839506172839,27.160493827160494,0)" xlink:href="#M"/><use transform="matrix(0.06172839506172839,0,0,0.06172839506172839,39.50617283950617,0)" xlink:href="#V"/><use transform="matrix(0.06172839506172839,0,0,0.06172839506172839,44.382716049382715,0)" xlink:href="#X"/><use transform="matrix(0.06172839506172839,0,0,0.06172839506172839,55.49382716049382,0)" xlink:href="#N"/><use transform="matrix(0.06172839506172839,0,0,0.06172839506172839,66.60493827160494,0)" xlink:href="#W"/><use transform="matrix(0.06172839506172839,0,0,0.06172839506172839,71.48148148148148,0)" xlink:href="#N"/></g><g id="n"><use transform="matrix(0.05,0,0,0.05,0,0)" xlink:href="#Z"/><use transform="matrix(0.05,0,0,0.05,14.950000000000001,0)" xlink:href="#S"/><use transform="matrix(0.05,0,0,0.05,24.950000000000003,0)" xlink:href="#L"/><use transform="matrix(0.05,0,0,0.05,29.950000000000003,0)" xlink:href="#S"/><use transform="matrix(0.05,0,0,0.05,39.95,0)" xlink:href="#I"/></g><g id="o"><use transform="matrix(0.05,0,0,0.05,0,0)" xlink:href="#M"/><use transform="matrix(0.05,0,0,0.05,10,0)" xlink:href="#T"/><use transform="matrix(0.05,0,0,0.05,20,0)" xlink:href="#M"/><use transform="matrix(0.05,0,0,0.05,30,0)" xlink:href="#V"/><use transform="matrix(0.05,0,0,0.05,33.95,0)" xlink:href="#X"/><use transform="matrix(0.05,0,0,0.05,42.95,0)" xlink:href="#N"/><use transform="matrix(0.05,0,0,0.05,51.95,0)" xlink:href="#W"/><use transform="matrix(0.05,0,0,0.05,55.900000000000006,0)" xlink:href="#N"/></g><g id="p"><use transform="matrix(0.05,0,0,0.05,0,0)" xlink:href="#E"/><use transform="matrix(0.05,0,0,0.05,12.950000000000001,0)" xlink:href="#M"/><use transform="matrix(0.05,0,0,0.05,22.950000000000003,0)" xlink:href="#I"/><use transform="matrix(0.05,0,0,0.05,28.900000000000002,0)" xlink:href="#G"/><use transform="matrix(0.05,0,0,0.05,43.85,0)" xlink:href="#P"/><use transform="matrix(0.05,0,0,0.05,53.85,0)" xlink:href="#T"/><use transform="matrix(0.05,0,0,0.05,63.85,0)" xlink:href="#W"/><use transform="matrix(0.05,0,0,0.05,67.8,0)" xlink:href="#aa"/></g><path d="M233-177c-1 41-23 64-60 70L243 0h-38l-65-103H63V0H30v-248c88 3 205-21 203 71zM63-129c60-2 137 13 137-47 0-61-80-42-137-45v92" id="ae"/><g id="q"><use transform="matrix(0.05,0,0,0.05,0,0)" xlink:href="#ae"/><use transform="matrix(0.05,0,0,0.05,12.950000000000001,0)" xlink:href="#P"/><use transform="matrix(0.05,0,0,0.05,22.950000000000003,0)" xlink:href="#P"/><use transform="matrix(0.05,0,0,0.05,32.95,0)" xlink:href="#L"/></g><path d="M194 0L95-120 63-95V0H30v-248h33v124l119-124h40L117-140 236 0h-42" id="af"/><g id="r"><use transform="matrix(0.05,0,0,0.05,0,0)" xlink:href="#af"/><use transform="matrix(0.05,0,0,0.05,12,0)" xlink:href="#S"/><use transform="matrix(0.05,0,0,0.05,22,0)" xlink:href="#X"/></g><g id="s"><use transform="matrix(0.05,0,0,0.05,0,0)" xlink:href="#S"/><use transform="matrix(0.05,0,0,0.05,10,0)" xlink:href="#N"/><use transform="matrix(0.05,0,0,0.05,19,0)" xlink:href="#L"/><use transform="matrix(0.05,0,0,0.05,24,0)" xlink:href="#W"/><use transform="matrix(0.05,0,0,0.05,27.950000000000003,0)" xlink:href="#G"/><use transform="matrix(0.05,0,0,0.05,42.9,0)" xlink:href="#M"/><use transform="matrix(0.05,0,0,0.05,52.900000000000006,0)" xlink:href="#L"/><use transform="matrix(0.05,0,0,0.05,57.900000000000006,0)" xlink:href="#W"/><use transform="matrix(0.05,0,0,0.05,61.85,0)" xlink:href="#P"/><use transform="matrix(0.05,0,0,0.05,71.85,0)" xlink:href="#T"/></g><path d="M30-248c87 1 191-15 191 75 0 78-77 80-158 76V0H30v-248zm33 125c57 0 124 11 124-50 0-59-68-47-124-48v98" id="ag"/><path d="M16-82v-28h88v28H16" id="ah"/><g id="t"><use transform="matrix(0.05,0,0,0.05,0,0)" xlink:href="#ag"/><use transform="matrix(0.05,0,0,0.05,12,0)" xlink:href="#V"/><use transform="matrix(0.05,0,0,0.05,15.949999999999998,0)" xlink:href="#M"/><use transform="matrix(0.05,0,0,0.05,25.950000000000003,0)" xlink:href="#W"/><use transform="matrix(0.05,0,0,0.05,29.899999999999995,0)" xlink:href="#T"/><use transform="matrix(0.05,0,0,0.05,39.9,0)" xlink:href="#ah"/><use transform="matrix(0.05,0,0,0.05,45.85,0)" xlink:href="#L"/><use transform="matrix(0.05,0,0,0.05,50.85,0)" xlink:href="#S"/><use transform="matrix(0.05,0,0,0.05,60.85,0)" xlink:href="#K"/><use transform="matrix(0.05,0,0,0.05,69.85,0)" xlink:href="#L"/></g><path d="M190 0L58-211 59 0H30v-248h39L202-35l-2-213h31V0h-41" id="ai"/><g id="u"><use transform="matrix(0.05,0,0,0.05,0,0)" xlink:href="#ai"/><use transform="matrix(0.05,0,0,0.05,12.950000000000001,0)" xlink:href="#P"/><use transform="matrix(0.05,0,0,0.05,22.950000000000003,0)" xlink:href="#L"/><use transform="matrix(0.05,0,0,0.05,27.950000000000003,0)" xlink:href="#S"/></g><path d="M63-220v92h138v28H63V0H30v-248h175v28H63" id="aj"/><g id="v"><use transform="matrix(0.05,0,0,0.05,0,0)" xlink:href="#aj"/><use transform="matrix(0.05,0,0,0.05,10.950000000000001,0)" xlink:href="#W"/><use transform="matrix(0.05,0,0,0.05,14.9,0)" xlink:href="#V"/><use transform="matrix(0.05,0,0,0.05,18.85,0)" xlink:href="#S"/></g><path d="M183 0l-10-63H79L44 0H-7l138-248h61L234 0h-51zm-14-102l-15-108c-16 38-36 73-55 108h70" id="ak"/><path d="M151-194c95 0 34 128 28 194h-49l25-134c0-29-45-25-59-9C67-111 69-48 56 0H6l36-190h47l-4 32c15-20 33-36 66-36" id="al"/><path d="M166-52c-4 17 5 29 24 23l-3 27c-30 11-74 1-67-34C105-15 91 4 56 4 23 4 3-15 2-49c0-64 63-67 128-67 10-22 3-53-29-45-13 3-22 10-25 24l-46-5c5-64 156-77 153 0-1 33-11 60-17 90zM97-88c-44-9-64 57-19 57 31 0 42-28 47-57H97" id="am"/><path d="M6 0l51-261h49L55 0H6" id="an"/><path d="M100 10C77 47 50 87-15 72l7-35c37 9 51-18 65-41L20-190h51L89-44l73-146h53" id="ao"/><path d="M-6 0l7-35 114-120H31l7-35h142l-7 35L59-36h100l-7 36H-6" id="ap"/><path d="M114-194c63-2 87 48 72 110H63c-3 28 1 55 31 54 21-1 32-13 37-29l44 13C160-14 137 4 91 4 41 4 11-22 11-73c0-71 33-119 103-121zm30 77c14-47-50-61-67-22-3 6-6 13-8 22h75" id="aq"/><path d="M132-28C118-9 101 4 69 4 30 4 10-23 10-62c0-70 24-129 92-132 31-1 47 14 56 35l19-102h49L179 0h-49zM62-69c0 22 7 39 29 39 45-2 54-45 57-90 2-27-10-40-33-40-44 0-53 48-53 91" id="ar"/><g id="w"><use transform="matrix(0.05,0,0,0.05,0,0)" xlink:href="#ak"/><use transform="matrix(0.05,0,0,0.05,12.950000000000001,0)" xlink:href="#al"/><use transform="matrix(0.05,0,0,0.05,23.900000000000002,0)" xlink:href="#am"/><use transform="matrix(0.05,0,0,0.05,33.900000000000006,0)" xlink:href="#an"/><use transform="matrix(0.05,0,0,0.05,38.900000000000006,0)" xlink:href="#ao"/><use transform="matrix(0.05,0,0,0.05,48.900000000000006,0)" xlink:href="#ap"/><use transform="matrix(0.05,0,0,0.05,57.900000000000006,0)" xlink:href="#aq"/><use transform="matrix(0.05,0,0,0.05,67.9,0)" xlink:href="#ar"/></g><g id="x"><use transform="matrix(0.05,0,0,0.05,0,0)" xlink:href="#E"/><use transform="matrix(0.05,0,0,0.05,12.950000000000001,0)" xlink:href="#F"/><use transform="matrix(0.05,0,0,0.05,22.950000000000003,0)" xlink:href="#G"/><use transform="matrix(0.05,0,0,0.05,37.900000000000006,0)" xlink:href="#H"/><use transform="matrix(0.05,0,0,0.05,47.900000000000006,0)" xlink:href="#I"/><use transform="matrix(0.05,0,0,0.05,53.85,0)" xlink:href="#F"/><use transform="matrix(0.05,0,0,0.05,63.85,0)" xlink:href="#G"/></g><g id="y"><use transform="matrix(0.05,0,0,0.05,0,0)" xlink:href="#Z"/><use transform="matrix(0.05,0,0,0.05,14.950000000000001,0)" xlink:href="#F"/><use transform="matrix(0.05,0,0,0.05,24.950000000000003,0)" xlink:href="#N"/><use transform="matrix(0.05,0,0,0.05,33.95,0)" xlink:href="#W"/><use transform="matrix(0.05,0,0,0.05,37.900000000000006,0)" xlink:href="#aa"/></g><g id="z"><use transform="matrix(0.05,0,0,0.05,0,0)" xlink:href="#ab"/><use transform="matrix(0.05,0,0,0.05,12,0)" xlink:href="#X"/><use transform="matrix(0.05,0,0,0.05,21,0)" xlink:href="#T"/><use transform="matrix(0.05,0,0,0.05,31,0)" xlink:href="#aa"/><use transform="matrix(0.05,0,0,0.05,40,0)" xlink:href="#Y"/><use transform="matrix(0.05,0,0,0.05,50,0)" xlink:href="#I"/><use transform="matrix(0.05,0,0,0.05,55.95,0)" xlink:href="#P"/><use transform="matrix(0.05,0,0,0.05,65.95,0)" xlink:href="#T"/><use transform="matrix(0.05,0,0,0.05,75.95,0)" xlink:href="#W"/><use transform="matrix(0.05,0,0,0.05,79.9,0)" xlink:href="#ad"/><use transform="matrix(0.05,0,0,0.05,88.9,0)" xlink:href="#S"/></g><g id="A"><use transform="matrix(0.05,0,0,0.05,0,0)" xlink:href="#ac"/><use transform="matrix(0.05,0,0,0.05,12,0)" xlink:href="#T"/><use transform="matrix(0.05,0,0,0.05,22,0)" xlink:href="#M"/><use transform="matrix(0.05,0,0,0.05,32,0)" xlink:href="#V"/><use transform="matrix(0.05,0,0,0.05,35.95,0)" xlink:href="#X"/><use transform="matrix(0.05,0,0,0.05,44.95,0)" xlink:href="#N"/><use transform="matrix(0.05,0,0,0.05,53.95,0)" xlink:href="#W"/><use transform="matrix(0.05,0,0,0.05,57.900000000000006,0)" xlink:href="#N"/></g><path d="M206 0h-36l-40-164L89 0H53L-1-190h32L70-26l43-164h34l41 164 42-164h31" id="as"/><g id="B"><use transform="matrix(0.05,0,0,0.05,0,0)" xlink:href="#as"/><use transform="matrix(0.05,0,0,0.05,12.950000000000001,0)" xlink:href="#W"/><use transform="matrix(0.05,0,0,0.05,16.900000000000002,0)" xlink:href="#L"/><use transform="matrix(0.05,0,0,0.05,21.900000000000002,0)" xlink:href="#Y"/></g><path d="M33 0v-248h34V0H33" id="at"/><path d="M115-194c55 1 70 41 70 98S169 2 115 4C84 4 66-9 55-30l1 105H24l-1-265h31l2 30c10-21 28-34 59-34zm-8 174c40 0 45-34 45-75s-6-73-45-74c-42 0-51 32-51 76 0 43 10 73 51 73" id="au"/><g id="C"><use transform="matrix(0.05,0,0,0.05,0,0)" xlink:href="#at"/><use transform="matrix(0.05,0,0,0.05,5,0)" xlink:href="#T"/><use transform="matrix(0.05,0,0,0.05,15,0)" xlink:href="#au"/><use transform="matrix(0.05,0,0,0.05,25,0)" xlink:href="#F"/><use transform="matrix(0.05,0,0,0.05,35,0)" xlink:href="#L"/></g><g id="D"><use transform="matrix(0.05,0,0,0.05,0,0)" xlink:href="#ab"/><use transform="matrix(0.05,0,0,0.05,12,0)" xlink:href="#aa"/><use transform="matrix(0.05,0,0,0.05,21,0)" xlink:href="#P"/><use transform="matrix(0.05,0,0,0.05,31,0)" xlink:href="#I"/><use transform="matrix(0.05,0,0,0.05,36.95,0)" xlink:href="#S"/></g></defs></g></svg>